<?xml version="1.0" encoding="UTF-8"?>
<svg xmlns="http://www.w3.org/2000/svg" xmlns:xlink="http://www.w3.org/1999/xlink" viewBox="0 0 757 874.11">
  <defs>
    <style>
      .cls-1 {
        stroke-dasharray: 0 0 20.33 10.16;
      }

      .cls-1, .cls-2, .cls-3, .cls-4, .cls-5 {
        fill: none;
      }

      .cls-1, .cls-3 {
        stroke: #000;
        stroke-width: 6px;
      }

      .cls-1, .cls-3, .cls-6, .cls-7, .cls-8, .cls-9 {
        stroke-miterlimit: 10;
      }

      .cls-2 {
        stroke: #a67c52;
        stroke-width: 62px;
      }

      .cls-2, .cls-4 {
        stroke-linejoin: bevel;
      }

      .cls-10 {
        opacity: .39;
      }

      .cls-11 {
        fill: #a67c52;
      }

      .cls-12 {
        clip-path: url(#clippath-1);
      }

      .cls-4 {
        stroke: #fbb03b;
        stroke-width: 81px;
      }

      .cls-13 {
        fill: #9e2f02;
      }

      .cls-6 {
        stroke-width: 4px;
      }

      .cls-6, .cls-7 {
        fill: #00b804;
        stroke: #144d00;
      }

      .cls-7, .cls-9 {
        stroke-width: 3px;
      }

      .cls-14 {
        fill: #747474;
      }

      .cls-8 {
        fill: #246abe;
        font-family: Arial-Black, Arial;
        font-size: 486.02px;
        font-weight: 800;
        stroke: #333;
        stroke-linecap: square;
        stroke-width: 5px;
      }

      .cls-15 {
        clip-path: url(#clippath);
      }

      .cls-16 {
        fill: #ed1e79;
      }

      .cls-17 {
        fill: #fbb03b;
      }

      .cls-18 {
        fill: #ff0;
      }

      .cls-19 {
        fill: #e96f00;
      }

      .cls-9 {
        fill: #fff;
        stroke: #4d4d4d;
      }
    </style>
    <clipPath id="clippath">
      <polygon class="cls-5" points="22 231.63 22 643.28 379 849.11 736 643.28 736 231.63 379 25.81 22 231.63"/>
    </clipPath>
    <clipPath id="clippath-1">
      <polygon class="cls-5" points="38 233.55 38 645.55 388.5 851.55 739 645.55 739 233.55 388.5 27.55 38 233.55"/>
    </clipPath>
  </defs>
  <g id="Layer_2" data-name="Layer 2">
    <g>
      <polygon class="cls-14" points="3 653.85 3 220.26 378.5 3.46 754 220.26 754 653.85 378.5 870.64 3 653.85"/>
      <path d="m378.5,6.93l372.5,215.06v430.13l-372.5,215.06L6,652.12V221.99L378.5,6.93m0-6.93L0,218.53v437.05l378.5,218.53,378.5-218.53V218.53L378.5,0h0Z"/>
    </g>
    <polygon class="cls-19" points="22 231.44 22 643.22 378.5 849.11 735 643.22 735 231.44 378.5 25.55 22 231.44"/>
    <g class="cls-15">
      <rect class="cls-13" x="21" y="603.55" width="714" height="246"/>
    </g>
    <path d="m378.5,27.66l349.5,204.16v408.46l-349.5,204.16L29,640.29V231.82L378.5,27.66m0-8.11L22,227.8v416.5l356.5,208.25,356.5-208.25V227.8L378.5,19.55h0Z"/>
    <g class="cls-10">
      <line class="cls-16" x1="545.5" y1="603.55" x2="544.45" y2="149.55"/>
      <g>
        <line class="cls-4" x1="545.5" y1="603.55" x2="544.72" y2="265.81"/>
        <polygon class="cls-17" points="625.55 289.26 544.45 149.55 463.99 289.63 625.55 289.26"/>
      </g>
    </g>
    <g class="cls-10">
      <line class="cls-18" x1="474" y1="603.55" x2="475.38" y2="750.55"/>
      <g>
        <line class="cls-2" x1="474" y1="603.55" x2="474.71" y2="679.37"/>
        <polygon class="cls-11" points="425.11 665.36 475.38 750.55 524.04 664.43 425.11 665.36"/>
      </g>
    </g>
    <g>
      <line class="cls-3" x1="27" y1="607.55" x2="37" y2="607.51"/>
      <line class="cls-1" x1="47.16" y1="607.47" x2="712.92" y2="604.62"/>
      <line class="cls-3" x1="718" y1="604.6" x2="728" y2="604.55"/>
    </g>
    <text class="cls-8" transform="translate(4.42 601.52)"><tspan x="0" y="0">R</tspan></text>
    <g>
      <path class="cls-9" d="m336.51,415.88l51.29-4.82c2.11,6.09,5.08,10.45,8.89,13.08,3.81,2.62,8.89,3.94,15.23,3.94,6.94,0,12.31-1.48,16.12-4.44,2.96-2.2,4.44-4.94,4.44-8.24,0-3.72-1.95-6.59-5.84-8.62-2.79-1.44-10.2-3.21-22.22-5.32-17.94-3.13-30.41-6.02-37.39-8.69-6.98-2.66-12.87-7.17-17.65-13.51-4.78-6.34-7.17-13.57-7.17-21.69,0-8.88,2.58-16.53,7.74-22.96,5.16-6.42,12.27-11.22,21.33-14.39,9.06-3.17,21.2-4.76,36.44-4.76,16.08,0,27.95,1.23,35.61,3.68,7.66,2.46,14.05,6.26,19.17,11.43,5.12,5.16,9.37,12.15,12.76,20.95l-49,4.82c-1.27-4.32-3.39-7.49-6.35-9.52-4.06-2.71-8.97-4.06-14.73-4.06s-10.09,1.04-12.76,3.11-4,4.58-4,7.54c0,3.3,1.69,5.79,5.08,7.48,3.38,1.69,10.75,3.21,22.09,4.56,17.18,1.94,29.96,4.65,38.34,8.12,8.38,3.47,14.79,8.41,19.23,14.84,4.44,6.43,6.67,13.49,6.67,21.18s-2.35,15.35-7.05,22.7c-4.7,7.36-12.1,13.21-22.22,17.56-10.11,4.35-23.89,6.53-41.32,6.53-24.63,0-42.17-3.51-52.62-10.54-10.45-7.02-17.16-17.01-20.12-29.96Z"/>
      <path class="cls-9" d="m473.01,318.5h49.96l21.61,84.89,27.35-84.89h46.69l28.51,85.1,21.74-85.1h49.65l-49.66,134.82h-45.98l-27.31-81.12-26.39,81.12h-46.19l-49.99-134.82Z"/>
      <path class="cls-9" d="m392.75,511.18l-49.38-5.21c1.86-8.63,4.55-15.42,8.06-20.38,3.51-4.95,8.57-9.25,15.17-12.89,4.74-2.62,11.25-4.65,19.55-6.09,8.29-1.44,17.27-2.16,26.91-2.16,15.49,0,27.93.87,37.32,2.6,9.39,1.74,17.22,5.35,23.49,10.85,4.4,3.81,7.87,9.2,10.41,16.19s3.81,13.65,3.81,20v59.54c0,6.35.4,11.32,1.21,14.92.8,3.6,2.56,8.19,5.27,13.77h-48.5c-1.95-3.47-3.22-6.11-3.81-7.93-.59-1.82-1.19-4.68-1.78-8.57-6.77,6.52-13.5,11.17-20.19,13.96-9.14,3.72-19.76,5.59-31.87,5.59-16.08,0-28.29-3.72-36.63-11.17-8.34-7.45-12.5-16.63-12.5-27.55,0-10.24,3-18.66,9.01-25.26,6.01-6.6,17.09-11.51,33.26-14.73,19.38-3.89,31.95-6.62,37.71-8.19,5.75-1.56,11.85-3.62,18.28-6.16,0-6.35-1.31-10.79-3.94-13.33-2.62-2.54-7.24-3.81-13.84-3.81-8.46,0-14.81,1.35-19.04,4.06-3.3,2.12-5.97,6.09-8,11.93Zm44.81,27.17c-7.11,2.54-14.52,4.78-22.22,6.73-10.5,2.79-17.14,5.54-19.93,8.25-2.88,2.79-4.32,5.97-4.32,9.52,0,4.06,1.42,7.39,4.25,9.97,2.83,2.58,7,3.87,12.5,3.87s11.11-1.4,16.06-4.19,8.46-6.2,10.54-10.22c2.07-4.02,3.11-9.25,3.11-15.68v-8.25Z"/>
      <path class="cls-9" d="m512.24,653.62v-186.11h48.37v19.93c6.68-8.38,12.82-14.05,18.41-17.01,7.53-3.98,15.87-5.97,25.01-5.97,18.03,0,31.97,6.9,41.83,20.69,9.86,13.8,14.79,30.85,14.79,51.16,0,22.43-5.38,39.55-16.12,51.35-10.75,11.81-24.33,17.71-40.75,17.71-7.96,0-15.21-1.35-21.77-4.06-6.56-2.71-12.42-6.73-17.58-12.06v64.37h-52.18Zm51.8-118.32c0,10.66,2.24,18.58,6.73,23.74,4.49,5.16,10.16,7.74,17.01,7.74,6.01,0,11.04-2.48,15.11-7.43s6.09-13.35,6.09-25.2c0-10.92-2.12-18.94-6.35-24.06-4.23-5.12-9.39-7.68-15.49-7.68-6.6,0-12.1,2.58-16.5,7.74-4.4,5.16-6.6,13.54-6.6,25.14Z"/>
    </g>
  </g>
  <g id="Layer_3" data-name="Layer 3">
    <rect class="cls-7" x="83.88" y="573.83" width="5.13" height="77.83" transform="translate(-407.96 240.59) rotate(-45)"/>
    <rect class="cls-7" x="132.76" y="580.4" width="5.64" height="68.74" transform="translate(474.42 84.19) rotate(45)"/>
    <g class="cls-12">
      <rect class="cls-7" x="108.29" y="578.33" width="5.72" height="119.83"/>
    </g>
    <ellipse class="cls-6" cx="112.11" cy="544.88" rx="18.55" ry="54.32"/>
    <ellipse class="cls-6" cx="171.44" cy="579.18" rx="54.32" ry="18.55" transform="translate(-359.33 290.86) rotate(-45)"/>
    <ellipse class="cls-6" cx="52.79" cy="579.18" rx="18.55" ry="54.32" transform="translate(-394.08 206.96) rotate(-45)"/>
  </g>
</svg>